# This file uses centimeters as units for non-parametric coordinates.

mtllib Gold Bars.mtl
g default
v 7.821064 8.122224 7.117825
v 20.239979 8.122224 11.407272
v 10.686558 12.061708 6.585926
v 18.313580 12.061708 9.220270
v 11.673878 12.061708 3.727425
v 19.300896 12.061708 6.361769
v 9.747475 8.122224 1.540424
v 22.166393 8.122224 5.829872
v 6.793400 4.202061 10.093136
v 19.212318 4.202061 14.382584
v 9.658897 8.141545 9.561241
v 17.285915 8.141545 12.195585
v 10.646214 8.141545 6.702740
v 18.273235 8.141545 9.337084
v 8.719814 4.202061 4.515736
v 21.138733 4.202061 8.805183
v 7.821064 0.281898 7.117825
v 20.239979 0.281898 11.407272
v 10.686558 4.221382 6.585926
v 18.313580 4.221382 9.220270
v 11.673878 4.221382 3.727425
v 19.300896 4.221382 6.361769
v 9.747475 0.281898 1.540424
v 22.166393 0.281898 5.829872
v 5.771534 0.281898 13.051674
v 18.190453 0.281898 17.341122
v 8.637032 4.221382 12.519775
v 16.264050 4.221382 15.154119
v 9.624348 4.221382 9.661274
v 17.251366 4.221382 12.295618
v 7.697948 0.281898 7.474274
v 20.116863 0.281898 11.763721
v 9.871628 0.281898 1.180973
v 22.290546 0.281898 5.470421
v 12.737125 4.221382 0.649078
v 20.364147 4.221382 3.283424
v 13.724442 4.221382 -2.209423
v 21.351460 4.221382 0.424919
v 11.798042 0.281898 -4.396427
v 24.216961 0.281898 -0.106979
v 8.843967 4.202061 4.156284
v 21.262886 4.202061 8.445732
v 11.709465 8.141545 3.624390
v 19.336483 8.141545 6.258734
v 12.696781 8.141545 0.765888
v 20.323799 8.141545 3.400230
v 10.770382 4.202061 -1.421112
v 23.189297 4.202061 2.868336
vt 0.090585 0.213146
vt 0.042130 0.072859
vt 0.094708 0.054698
vt 0.143162 0.194985
vt 0.001904 0.037425
vt 0.104491 0.001992
vt 0.183389 0.230419
vt 0.080801 0.265852
vt 0.190199 0.230419
vt 0.269096 0.001992
vt 0.371684 0.037425
vt 0.292786 0.265852
vt 0.466989 0.213146
vt 0.418534 0.072859
vt 0.471112 0.054698
vt 0.519566 0.194985
vt 0.378308 0.037425
vt 0.480895 0.001992
vt 0.559793 0.230419
vt 0.457205 0.265852
vt 0.566417 0.230419
vt 0.645314 0.001992
vt 0.747902 0.037425
vt 0.669004 0.265852
vt 0.843207 0.213146
vt 0.794752 0.072859
vt 0.847330 0.054698
vt 0.895784 0.194985
vt 0.754526 0.037425
vt 0.857113 0.001992
vt 0.936011 0.230419
vt 0.833423 0.265852
vt 0.772235 0.498093
vt 0.851132 0.269666
vt 0.953720 0.305100
vt 0.874822 0.533526
vt 0.673568 0.480820
vt 0.625113 0.340533
vt 0.677691 0.322373
vt 0.726145 0.462660
vt 0.584886 0.305100
vt 0.687474 0.269666
vt 0.766372 0.498093
vt 0.663784 0.533526
vt 0.397538 0.498093
vt 0.476436 0.269666
vt 0.579023 0.305100
vt 0.500126 0.533526
vt 0.298871 0.480820
vt 0.250416 0.340533
vt 0.302994 0.322373
vt 0.351449 0.462660
vt 0.210190 0.305100
vt 0.312777 0.269666
vt 0.391675 0.498093
vt 0.289088 0.533526
vt 0.022842 0.498093
vt 0.101739 0.269666
vt 0.204327 0.305100
vt 0.125429 0.533526
vt 0.090585 0.748494
vt 0.042130 0.608207
vt 0.094708 0.590047
vt 0.143162 0.730334
vt 0.001904 0.572774
vt 0.104491 0.537340
vt 0.183389 0.765767
vt 0.080801 0.801200
vt 0.190199 0.765767
vt 0.269096 0.537341
vt 0.371684 0.572774
vt 0.292786 0.801200
vt 0.378308 0.765767
vt 0.378308 0.537341
vt 0.450768 0.572774
vt 0.450768 0.713061
vt 0.458394 0.730334
vt 0.458394 0.590047
vt 0.530854 0.537340
vt 0.530854 0.765767
vt 0.538480 0.765767
vt 0.538480 0.537340
vt 0.610940 0.572774
vt 0.610940 0.713061
vt 0.618566 0.730334
vt 0.618566 0.590047
vt 0.691026 0.537340
vt 0.691026 0.765767
vt 0.698652 0.765767
vt 0.698652 0.537341
vt 0.771112 0.572774
vt 0.771112 0.713061
vt 0.778738 0.730334
vt 0.778738 0.590047
vt 0.851198 0.537340
vt 0.851198 0.765767
vt 0.858824 0.765767
vt 0.858824 0.537340
vt 0.931284 0.572774
vt 0.931284 0.713061
vt 0.881259 0.962575
vt 0.881259 0.822288
vt 0.953720 0.769581
vt 0.953720 0.998008
vt 0.802936 0.998008
vt 0.802936 0.769581
vt 0.875396 0.805014
vt 0.875396 0.945302
vt 0.724612 0.962575
vt 0.724612 0.822288
vt 0.797073 0.769581
vt 0.797073 0.998008
vt 0.646289 0.998008
vt 0.646289 0.769581
vt 0.718749 0.805014
vt 0.718749 0.945302
vt 0.567965 0.962575
vt 0.567965 0.822288
vt 0.640425 0.769581
vt 0.640425 0.998008
vn -0.306672 0.342947 0.887885
vn -0.306672 0.342947 0.887885
vn -0.306672 0.342947 0.887885
vn -0.306672 0.342947 0.887885
vn 0.000000 1.000000 -0.000000
vn 0.000000 1.000000 -0.000000
vn 0.000000 1.000000 -0.000000
vn 0.000000 1.000000 -0.000000
vn 0.306672 0.342946 -0.887885
vn 0.306672 0.342946 -0.887885
vn 0.306672 0.342946 -0.887885
vn 0.306672 0.342946 -0.887885
vn 0.000000 -1.000000 -0.000000
vn 0.000000 -1.000000 -0.000000
vn 0.000000 -1.000000 -0.000000
vn 0.000000 -1.000000 -0.000000
vn 0.794876 0.541107 0.274547
vn 0.794876 0.541107 0.274547
vn 0.794876 0.541107 0.274547
vn 0.794876 0.541107 0.274547
vn -0.794876 0.541107 -0.274547
vn -0.794875 0.541107 -0.274547
vn -0.794876 0.541107 -0.274547
vn -0.794875 0.541107 -0.274547
vn -0.306672 0.342946 0.887885
vn -0.306672 0.342946 0.887885
vn -0.306672 0.342946 0.887885
vn -0.306672 0.342946 0.887885
vn 0.000000 1.000000 0.000000
vn 0.000000 1.000000 0.000000
vn 0.000000 1.000000 0.000000
vn 0.000000 1.000000 0.000000
vn 0.306672 0.342947 -0.887885
vn 0.306672 0.342947 -0.887885
vn 0.306672 0.342947 -0.887885
vn 0.306672 0.342947 -0.887885
vn 0.000000 -1.000000 0.000000
vn 0.000000 -1.000000 0.000000
vn 0.000000 -1.000000 0.000000
vn 0.000000 -1.000000 0.000000
vn 0.794875 0.541107 0.274547
vn 0.794875 0.541107 0.274547
vn 0.794875 0.541107 0.274547
vn 0.794875 0.541107 0.274547
vn -0.794875 0.541107 -0.274547
vn -0.794876 0.541107 -0.274547
vn -0.794876 0.541107 -0.274547
vn -0.794875 0.541107 -0.274547
vn -0.306672 0.342947 0.887885
vn -0.306672 0.342947 0.887885
vn -0.306672 0.342947 0.887885
vn -0.306672 0.342947 0.887885
vn 0.000000 1.000000 -0.000000
vn 0.000000 1.000000 -0.000000
vn 0.000000 1.000000 -0.000000
vn 0.000000 1.000000 -0.000000
vn 0.306672 0.342946 -0.887885
vn 0.306672 0.342946 -0.887885
vn 0.306672 0.342946 -0.887885
vn 0.306672 0.342946 -0.887885
vn 0.000000 -1.000000 -0.000000
vn 0.000000 -1.000000 -0.000000
vn 0.000000 -1.000000 -0.000000
vn 0.000000 -1.000000 -0.000000
vn 0.794876 0.541107 0.274547
vn 0.794876 0.541107 0.274547
vn 0.794876 0.541107 0.274547
vn 0.794876 0.541107 0.274547
vn -0.794876 0.541107 -0.274547
vn -0.794876 0.541107 -0.274547
vn -0.794876 0.541107 -0.274547
vn -0.794876 0.541107 -0.274547
vn -0.306672 0.342947 0.887885
vn -0.306672 0.342947 0.887885
vn -0.306672 0.342947 0.887885
vn -0.306672 0.342947 0.887885
vn 0.000000 1.000000 -0.000000
vn 0.000000 1.000000 -0.000000
vn 0.000000 1.000000 -0.000000
vn 0.000000 1.000000 -0.000000
vn 0.306672 0.342946 -0.887885
vn 0.306672 0.342946 -0.887885
vn 0.306672 0.342946 -0.887885
vn 0.306672 0.342946 -0.887885
vn 0.000000 -1.000000 0.000000
vn 0.000000 -1.000000 0.000000
vn 0.000000 -1.000000 0.000000
vn 0.000000 -1.000000 0.000000
vn 0.794876 0.541107 0.274547
vn 0.794876 0.541107 0.274547
vn 0.794876 0.541107 0.274547
vn 0.794876 0.541107 0.274547
vn -0.794876 0.541107 -0.274547
vn -0.794876 0.541107 -0.274547
vn -0.794876 0.541107 -0.274547
vn -0.794876 0.541107 -0.274547
vn -0.306672 0.342946 0.887885
vn -0.306672 0.342946 0.887885
vn -0.306672 0.342946 0.887885
vn -0.306672 0.342946 0.887885
vn 0.000000 1.000000 -0.000000
vn 0.000000 1.000000 -0.000000
vn 0.000000 1.000000 -0.000000
vn 0.000000 1.000000 -0.000000
vn 0.306672 0.342947 -0.887885
vn 0.306672 0.342947 -0.887885
vn 0.306672 0.342947 -0.887885
vn 0.306672 0.342947 -0.887885
vn 0.000000 -1.000000 0.000000
vn 0.000000 -1.000000 0.000000
vn 0.000000 -1.000000 0.000000
vn 0.000000 -1.000000 0.000000
vn 0.794876 0.541107 0.274547
vn 0.794876 0.541107 0.274547
vn 0.794876 0.541107 0.274547
vn 0.794876 0.541107 0.274547
vn -0.794875 0.541107 -0.274547
vn -0.794875 0.541107 -0.274547
vn -0.794875 0.541107 -0.274547
vn -0.794876 0.541107 -0.274547
vn -0.306672 0.342946 0.887885
vn -0.306672 0.342946 0.887885
vn -0.306672 0.342946 0.887885
vn -0.306672 0.342946 0.887885
vn 0.000000 1.000000 0.000000
vn 0.000000 1.000000 0.000000
vn 0.000000 1.000000 0.000000
vn 0.000000 1.000000 0.000000
vn 0.306672 0.342946 -0.887885
vn 0.306672 0.342946 -0.887885
vn 0.306672 0.342946 -0.887885
vn 0.306672 0.342946 -0.887885
vn 0.000000 -1.000000 -0.000000
vn 0.000000 -1.000000 -0.000000
vn 0.000000 -1.000000 -0.000000
vn 0.000000 -1.000000 -0.000000
vn 0.794875 0.541107 0.274547
vn 0.794875 0.541107 0.274547
vn 0.794875 0.541107 0.274547
vn 0.794875 0.541107 0.274547
vn -0.794876 0.541107 -0.274547
vn -0.794875 0.541107 -0.274547
vn -0.794875 0.541107 -0.274547
vn -0.794876 0.541107 -0.274547
s off
g Gold_Bars
usemtl initialShadingGroup
f 1/73/1 2/74/2 4/75/3 3/76/4
f 3/1/5 4/2/6 6/3/7 5/4/8
f 5/77/9 6/78/10 8/79/11 7/80/12
f 7/9/13 8/10/14 2/11/15 1/12/16
f 2/5/17 8/6/18 6/3/19 4/2/20
f 7/7/21 1/8/22 3/1/23 5/4/24
f 9/81/25 10/82/26 12/83/27 11/84/28
f 11/13/29 12/14/30 14/15/31 13/16/32
f 13/85/33 14/86/34 16/87/35 15/88/36
f 15/21/37 16/22/38 10/23/39 9/24/40
f 10/17/41 16/18/42 14/15/43 12/14/44
f 15/19/45 9/20/46 11/13/47 13/16/48
f 17/89/49 18/90/50 20/91/51 19/92/52
f 19/25/53 20/26/54 22/27/55 21/28/56
f 21/93/57 22/94/58 24/95/59 23/96/60
f 23/33/61 24/34/62 18/35/63 17/36/64
f 18/29/65 24/30/66 22/27/67 20/26/68
f 23/31/69 17/32/70 19/25/71 21/28/72
f 25/97/73 26/98/74 28/99/75 27/100/76
f 27/37/77 28/38/78 30/39/79 29/40/80
f 29/101/81 30/102/82 32/103/83 31/104/84
f 31/45/85 32/46/86 26/47/87 25/48/88
f 26/41/89 32/42/90 30/39/91 28/38/92
f 31/43/93 25/44/94 27/37/95 29/40/96
f 33/105/97 34/106/98 36/107/99 35/108/100
f 35/49/101 36/50/102 38/51/103 37/52/104
f 37/109/105 38/110/106 40/111/107 39/112/108
f 39/57/109 40/58/110 34/59/111 33/60/112
f 34/53/113 40/54/114 38/51/115 36/50/116
f 39/55/117 33/56/118 35/49/119 37/52/120
f 41/113/121 42/114/122 44/115/123 43/116/124
f 43/61/125 44/62/126 46/63/127 45/64/128
f 45/117/129 46/118/130 48/119/131 47/120/132
f 47/69/133 48/70/134 42/71/135 41/72/136
f 42/65/137 48/66/138 46/63/139 44/62/140
f 47/67/141 41/68/142 43/61/143 45/64/144
