# This file uses centimeters as units for non-parametric coordinates.

mtllib Jump Pad.mtl
g default
v 4.436742 0.993781 4.470558
v -4.489441 0.993781 4.470558
v 4.436742 0.993781 -4.367812
v -4.489441 0.993781 -4.367812
v -5.100215 0.364403 5.100215
v -5.168161 0.432349 5.168161
v -4.489441 0.364403 5.102736
v -4.438970 0.364403 5.168161
v -4.537932 0.432978 5.168161
v -5.168161 0.857885 5.168161
v -5.100215 0.925831 5.100215
v -4.537932 0.857255 5.168161
v -4.438970 0.925831 5.168161
v -4.489441 0.925831 5.102736
v -5.100215 0.925831 -5.100215
v -5.168161 0.857885 -5.168161
v -4.489441 0.925831 -5.102736
v -4.438970 0.925831 -5.168161
v -4.537932 0.857255 -5.168161
v -5.168161 0.432349 -5.168161
v -5.100215 0.364403 -5.100215
v -4.489441 0.364403 -5.102736
v -4.535889 0.430089 -5.168161
v -4.438970 0.364403 -5.168161
v -5.102736 0.925831 4.470558
v -5.168161 0.925831 4.420086
v -5.168161 0.857255 4.519048
v 5.168161 0.857885 5.168161
v 5.100215 0.925831 5.100215
v 5.102736 0.925831 4.470558
v 5.168161 0.860144 4.517005
v 5.168161 0.925831 4.420086
v -5.102736 0.364403 -4.367812
v -5.168161 0.364403 -4.317340
v -5.168161 0.432978 -4.416303
v 5.168161 0.432349 -5.168161
v 5.100215 0.364403 -5.100215
v 5.168161 0.432349 -4.319767
v 5.100215 0.364403 -4.319767
v 5.100215 0.364403 -4.415857
v 5.168161 0.432349 -4.415857
v 4.485233 0.857255 5.168161
v 4.436742 0.925831 5.102736
v 4.386271 0.925831 5.168161
v 5.168161 0.857885 -5.168161
v 5.100215 0.925831 -5.100215
v 4.436742 0.925831 -5.102736
v 4.483190 0.860144 -5.168161
v 4.386271 0.925831 -5.168161
v 4.436742 0.364403 -5.102736
v 4.386271 0.364403 -5.168161
v 4.485233 0.432978 -5.168161
v 5.168161 0.432349 5.168161
v 5.100215 0.364403 5.100215
v 4.436742 0.364403 5.102736
v 4.483190 0.430089 5.168161
v 4.386271 0.364403 5.168161
v -5.168161 0.364403 4.420086
v -5.102736 0.364403 4.470558
v -5.168161 0.430089 4.517005
v -4.441396 0.364403 4.422513
v -4.537487 0.364403 4.518603
v 4.436742 0.364403 4.518603
v 4.436742 0.364403 4.422513
v 5.168161 0.432349 4.422513
v 5.168161 0.432349 4.518603
v 5.100215 0.364403 4.518603
v 5.100215 0.364403 4.422513
v 4.504688 0.925831 4.538504
v 4.504688 0.925831 -4.435758
v -4.557387 0.925831 4.538504
v -4.557387 0.925831 -4.435758
v -5.102736 0.925831 -4.367812
v -5.168161 0.860144 -4.414260
v -5.168161 0.925831 -4.317340
v -4.441396 0.364403 -4.319767
v -4.537487 0.364403 -4.415857
v 4.436742 0.364403 -4.319767
v 4.436742 0.364403 -4.415857
v 5.102736 0.925831 -4.367812
v 5.168161 0.925831 -4.317340
v 5.168161 0.857255 -4.416303
vt 0.392637 0.000000
vt 0.145578 0.000000
vt 0.356907 0.250000
vt 0.376643 0.998357
vt 0.375000 1.000000
vt 0.376643 -0.000000
vt 0.390243 0.030536
vt 0.392637 0.250000
vt 0.375000 0.265700
vt 0.390243 0.219464
vt 0.126643 0.250000
vt 0.144358 0.250000
vt 0.375000 0.530257
vt 0.376643 0.498357
vt 0.390243 0.530536
vt 0.392637 0.750000
vt 0.125000 0.030257
vt 0.126643 0.000000
vt 0.390292 0.720750
vt 0.359300 0.219464
vt 0.356907 0.000000
vt 0.626643 0.250000
vt 0.641873 0.250000
vt 0.640749 0.220750
vt 0.143185 0.030536
vt 0.145578 0.250000
vt 0.625000 0.719744
vt 0.625000 0.768196
vt 0.854480 0.030256
vt 0.856804 0.030256
vt 0.854422 0.250000
vt 0.625000 0.770520
vt 0.625000 0.981961
vt 0.623357 0.770520
vt 0.608482 0.219464
vt 0.606089 0.000000
vt 0.875000 0.219744
vt 0.873357 0.250000
vt 0.856815 0.219464
vt 0.606089 0.500000
vt 0.608482 0.719464
vt 0.626644 0.000000
vt 0.640711 0.030256
vt 0.625000 1.000000
vt 0.608433 1.000000
vt 0.392578 0.981965
vt 0.623357 0.981961
vt 0.623357 0.984289
vt 0.376643 0.251643
vt 0.391416 0.251582
vt 0.389773 0.265229
vt 0.376582 0.983127
vt 0.390254 0.984289
vt 0.391416 0.998418
vt 0.625000 0.219744
vt 0.623357 0.251643
vt 0.623418 0.266873
vt 0.608953 0.265229
vt 0.623357 0.998357
vt 0.607310 0.998418
vt 0.392578 0.770520
vt 0.607310 0.770520
vt 0.607310 0.981965
vt 0.643093 0.250000
vt 0.643035 0.030256
vt 0.625000 0.268093
vt 0.625000 0.479422
vt 0.623418 0.480642
vt 0.376643 0.751643
vt 0.391416 0.751582
vt 0.390254 0.768196
vt 0.376583 0.769358
vt 0.607310 0.751582
vt 0.623357 0.768196
vt 0.607310 0.768196
vt 0.623357 0.751643
vt 0.875000 0.030256
vt 0.623357 0.498357
vt 0.607310 0.498418
vt 0.608953 0.482286
vt 0.392637 0.500000
vt 0.376582 0.480642
vt 0.607310 0.266873
vt 0.391416 0.266873
vt 0.607310 0.480642
vt 0.391416 0.480642
vt 0.392636 1.000000
vt 0.607310 0.984289
vt 0.606089 1.000000
vt 0.607310 0.251582
vt 0.375000 0.268097
vt 0.389773 0.482286
vt 0.375000 0.479422
vt 0.375000 0.770582
vt 0.375000 0.981907
vt 0.375000 0.219744
vt 0.359251 0.029250
vt 0.375000 0.030257
vt 0.375000 0.719744
vt 0.125000 0.219744
vt 0.608433 0.029250
vt 0.625000 0.030257
vt 0.625000 0.530256
vt 0.391416 0.000000
vt 0.391416 0.498418
vt 0.376583 0.266873
vt 0.144358 0.000000
vt 0.625000 0.769358
vt 0.606089 0.250000
vt 0.608433 0.529250
vt 0.606089 0.750000
vt 0.607310 0.000000
vt 0.375000 0.984251
vt 0.640710 -0.000000
vt 0.641873 0.000000
vt 0.143234 0.220750
vt 0.855642 0.250000
vn 0.000000 0.000000 -1.000000
vn 0.000000 0.000000 -1.000000
vn 0.000000 0.000000 -1.000000
vn 0.000000 0.000000 -1.000000
vn -0.000000 0.000000 1.000000
vn -0.000000 0.000000 1.000000
vn -0.000000 0.000000 1.000000
vn -0.000000 0.000000 1.000000
vn -1.000000 -0.000000 0.000000
vn -1.000000 -0.000000 0.000000
vn -1.000000 0.000000 0.000000
vn -1.000000 0.000000 0.000000
vn 0.000000 1.000000 0.000000
vn 0.000000 1.000000 0.000000
vn 0.000000 1.000000 0.000000
vn 0.000000 1.000000 0.000000
vn -0.706669 -0.707539 0.002638
vn -0.706669 -0.707539 0.002638
vn -0.706669 -0.707539 0.002638
vn -0.706669 -0.707539 0.002638
vn -0.001097 -0.699284 0.714843
vn -0.001097 -0.699284 0.714843
vn -0.001097 -0.699284 0.714843
vn -0.001097 -0.699284 0.714843
vn -0.000001 0.000000 1.000000
vn -0.000001 0.000000 1.000000
vn -0.714859 0.699268 0.001064
vn -0.714859 0.699268 0.001064
vn -0.714859 0.699268 0.001064
vn -0.714859 0.699268 0.001064
vn -0.001097 0.699284 0.714843
vn -0.001097 0.699284 0.714843
vn -0.001097 0.699284 0.714843
vn -0.001097 0.699284 0.714843
vn -0.706823 0.707387 -0.002274
vn -0.706823 0.707387 -0.002274
vn -0.706823 0.707387 -0.002274
vn -0.706823 0.707387 -0.002274
vn -0.001097 0.699284 -0.714843
vn -0.001097 0.699284 -0.714843
vn -0.001097 0.699284 -0.714843
vn -0.001097 0.699284 -0.714843
vn 0.000000 0.000000 -1.000000
vn 0.000000 0.000000 -1.000000
vn -0.714919 -0.699207 -0.000917
vn -0.714919 -0.699207 -0.000917
vn -0.714919 -0.699207 -0.000917
vn -0.714919 -0.699207 -0.000917
vn -0.002718 -0.707577 -0.706631
vn -0.002718 -0.707577 -0.706631
vn -0.002718 -0.707577 -0.706631
vn -0.002718 -0.707577 -0.706631
vn -1.000000 -0.000001 0.000000
vn -1.000000 -0.000001 0.000000
vn 0.001011 0.699246 0.714881
vn 0.001011 0.699246 0.714881
vn 0.001011 0.699246 0.714881
vn 0.001011 0.699246 0.714881
vn 0.706670 0.707539 0.002638
vn 0.706670 0.707539 0.002638
vn 0.706670 0.707539 0.002638
vn 0.706670 0.707539 0.002638
vn 1.000000 -0.000002 0.000000
vn 1.000000 0.000001 0.000000
vn 1.000000 0.000001 0.000000
vn 1.000000 -0.000002 0.000000
vn -1.000000 -0.000000 0.000000
vn -1.000000 -0.000000 0.000000
vn 0.001011 -0.699247 -0.714880
vn 0.001011 -0.699247 -0.714880
vn 0.001011 -0.699247 -0.714880
vn 0.001011 -0.699247 -0.714880
vn 0.707108 -0.707105 0.000000
vn 0.707108 -0.707105 0.000000
vn 0.707108 -0.707105 0.000000
vn 0.707108 -0.707105 0.000000
vn 1.000000 -0.000002 0.000000
vn 1.000000 0.000000 0.000000
vn 1.000000 0.000000 0.000000
vn 1.000000 -0.000002 0.000000
vn 0.707106 -0.707107 0.000000
vn 0.707106 -0.707107 0.000000
vn 0.707106 -0.707107 0.000000
vn 0.707106 -0.707107 0.000000
vn 0.000000 -1.000000 0.000000
vn 0.000000 -1.000000 0.000000
vn 0.000000 -1.000000 0.000000
vn 0.000000 -1.000000 0.000000
vn -0.000000 0.000000 1.000000
vn -0.000000 0.000000 1.000000
vn 0.714920 0.699206 -0.000917
vn 0.714920 0.699206 -0.000917
vn 0.714920 0.699206 -0.000917
vn 0.714920 0.699206 -0.000917
vn 0.002506 0.707485 -0.706724
vn 0.002506 0.707485 -0.706724
vn 0.002506 0.707485 -0.706724
vn 0.002506 0.707485 -0.706724
vn 0.000000 0.000000 -1.000000
vn 0.000000 0.000000 -1.000000
vn 0.707109 -0.707105 0.000000
vn 0.707109 -0.707105 0.000000
vn 0.707108 -0.707105 0.000000
vn 0.707108 -0.707105 0.000000
vn 0.002506 -0.707486 0.706723
vn 0.002506 -0.707486 0.706723
vn 0.002506 -0.707486 0.706723
vn 0.002506 -0.707486 0.706723
vn 0.000000 -1.000000 0.000000
vn 0.000000 -1.000000 0.000000
vn 0.000000 -1.000000 0.000000
vn 0.000000 -1.000000 0.000000
vn 0.000000 -1.000000 0.000000
vn 0.000000 -1.000000 0.000000
vn 0.000000 -1.000000 0.000000
vn 0.000000 -1.000000 0.000000
vn 0.000000 0.707088 0.707125
vn 0.000000 0.707088 0.707125
vn 0.000000 0.707088 0.707125
vn 0.000000 0.707088 0.707125
vn 0.707123 0.707091 0.000000
vn 0.707123 0.707091 0.000000
vn 0.707123 0.707091 0.000000
vn 0.707123 0.707091 0.000000
vn 0.000000 0.707088 -0.707125
vn 0.000000 0.707088 -0.707125
vn 0.000000 0.707088 -0.707125
vn 0.000000 0.707088 -0.707125
vn -0.707121 0.707093 0.000000
vn -0.707121 0.707093 0.000000
vn -0.707121 0.707093 0.000000
vn -0.707121 0.707093 0.000000
vn 0.000000 1.000000 -0.000000
vn 0.000000 1.000000 0.000000
vn 0.000000 1.000000 0.000000
vn 0.000000 1.000000 -0.000000
vn 0.000000 -1.000000 0.000000
vn 0.000000 -1.000000 0.000000
vn 0.000000 -1.000000 0.000000
vn 1.000000 0.000001 0.000000
vn 1.000000 0.000001 0.000000
vn 0.000000 1.000000 0.000000
vn 0.000000 1.000000 0.000000
vn 0.000000 1.000000 0.000000
vn 0.000000 1.000000 0.000000
vn 0.000000 -1.000000 0.000000
vn 0.000000 -1.000000 0.000000
vn 0.000000 1.000000 0.000000
vn 0.000000 1.000000 0.000000
vn 0.000000 1.000000 0.000000
vn 0.000000 1.000000 -0.000000
vn 0.000000 -1.000000 0.000000
vn 0.000000 -1.000000 0.000000
vn 0.000000 -1.000000 0.000000
vn 0.000000 -1.000000 0.000000
vn 0.000000 -1.000000 0.000000
vn 0.000000 -1.000000 0.000000
vn 0.000000 -1.000000 0.000000
vn 1.000000 0.000000 0.000000
vn 1.000000 0.000000 0.000000
vn 0.000000 1.000000 0.000000
vn 0.000000 1.000000 -0.000000
vn 0.000000 1.000000 -0.000000
vn 0.000000 1.000000 -0.000000
vn 0.000000 1.000000 -0.000000
vn 0.000000 1.000000 -0.000000
vn 0.000000 1.000000 0.000000
vn 0.000000 1.000000 -0.000000
vn 0.000000 -1.000000 0.000000
vn 0.000000 -1.000000 0.000000
vn 0.000000 1.000000 0.000000
vn 0.000000 1.000000 0.000000
vn 0.000000 1.000000 -0.000000
vn 0.000000 1.000000 -0.000000
vn 0.000000 -1.000000 0.000000
vn 0.000000 -1.000000 0.000000
vn 0.000000 0.000000 1.000000
vn 0.000000 0.000000 1.000000
vn -1.000000 -0.000001 0.000000
vn -1.000000 -0.000001 0.000000
vn -0.000001 0.000000 -1.000000
vn -0.000001 0.000000 -1.000000
vn -1.000000 0.000000 0.000000
vn -1.000000 0.000000 0.000000
vn 0.000001 0.000000 1.000000
vn 0.000001 0.000000 1.000000
vn 0.000000 0.000000 -1.000000
vn 0.000000 0.000000 -1.000000
vn -0.521451 -0.752510 0.402266
vn -0.521451 -0.752510 0.402266
vn -0.521451 -0.752510 0.402266
vn -0.521451 0.752509 0.402267
vn -0.521451 0.752509 0.402267
vn -0.521451 0.752509 0.402267
vn -0.521451 0.752509 -0.402267
vn -0.521451 0.752509 -0.402267
vn -0.521451 0.752509 -0.402267
vn -0.514887 -0.759688 -0.397198
vn -0.514887 -0.759688 -0.397198
vn -0.514887 -0.759687 -0.397198
vn -0.402259 0.752510 0.521456
vn -0.402259 0.752510 0.521456
vn -0.402259 0.752510 0.521456
vn 0.397195 0.759693 0.514881
vn 0.397195 0.759693 0.514881
vn 0.397195 0.759693 0.514881
vn -0.402271 -0.752506 -0.521452
vn -0.402271 -0.752506 -0.521452
vn -0.402271 -0.752506 -0.521452
vn 0.521451 0.752509 0.402267
vn 0.521451 0.752509 0.402267
vn 0.521451 0.752509 0.402267
vn 0.514884 0.759690 -0.397196
vn 0.514884 0.759690 -0.397196
vn 0.514884 0.759690 -0.397196
vn 0.521451 -0.752510 -0.402266
vn 0.521451 -0.752510 -0.402266
vn 0.521451 -0.752510 -0.402266
vn 0.514884 -0.759691 0.397196
vn 0.514884 -0.759691 0.397196
vn 0.514884 -0.759691 0.397196
vn -0.397196 -0.759693 0.514881
vn -0.397196 -0.759693 0.514881
vn -0.397196 -0.759693 0.514881
vn -0.397201 0.759691 -0.514880
vn -0.397201 0.759691 -0.514880
vn -0.397201 0.759691 -0.514880
vn 0.402271 0.752506 -0.521453
vn 0.402271 0.752506 -0.521453
vn 0.402271 0.752506 -0.521453
s 1
g Jump_Pad
usemtl initialShadingGroup
f 24/16/1 18/81/2 49/40/3 51/111/4
s 2
f 13/8/5 8/1/6 57/36/7 44/109/8
s 3
f 75/26/9 34/2/10 58/21/11 26/3/12
s off
f 2/84/13 1/83/14 3/85/15 4/86/16
f 5/4/17 6/5/18 60/113/19 59/52/20
f 6/98/21 5/6/22 7/104/23 9/7/24
s 2
f 9/7/25 8/1/6 13/8/5 12/10/26
s off
f 10/96/27 11/49/28 25/106/29 27/9/30
f 11/49/31 10/96/32 12/10/33 14/50/34
f 15/11/35 16/100/36 74/116/37 73/12/38
f 16/13/39 15/14/40 17/105/41 19/15/42
s 1
f 19/15/43 18/81/2 24/16/1 23/19/44
s off
f 20/17/45 21/18/46 33/107/47 35/25/48
f 21/69/49 20/99/50 23/19/51 22/70/52
s 3
f 27/20/53 26/3/12 58/21/11 60/97/54
s off
f 28/55/55 29/56/56 43/90/57 42/35/58
f 29/22/59 28/55/60 31/24/61 30/23/62
s 4
f 32/64/63 31/24/64 66/43/65 65/65/66
s 3
f 35/25/67 34/2/10 75/26/9 74/116/68
s off
f 36/27/69 37/76/70 50/73/71 52/41/72
s 5
f 37/76/73 36/27/74 41/28/75 40/74/76
s 4
f 38/29/77 41/30/78 82/39/79 81/31/80
s 5
f 39/34/81 38/32/82 65/33/83 68/47/84
s 7
f 40/74/85 39/34/86 78/62/87 79/75/88
s 2
f 42/35/89 44/109/8 57/36/7 56/101/90
s off
f 45/37/91 46/38/92 80/117/93 82/39/94
f 46/78/95 45/103/96 48/110/97 47/79/98
s 1
f 49/40/3 48/110/99 52/41/100 51/111/4
s 5
f 53/102/101 54/42/102 67/114/103 66/43/104
s off
f 54/59/105 53/44/106 56/45/107 55/60/108
s 7
f 61/46/109 62/53/110 77/71/111 76/61/112
f 62/53/110 61/46/109 64/63/113 63/88/114
f 63/88/114 64/63/113 68/47/115 67/48/116
s off
f 69/58/117 1/83/118 2/84/119 71/51/120
f 1/83/121 69/58/122 70/80/123 3/85/124
f 3/85/125 70/80/126 72/92/127 4/86/128
f 71/51/129 2/84/130 4/86/131 72/92/132
s 7
f 76/61/112 77/71/111 79/75/88 78/62/87
s 9
f 11/49/133 14/50/134 71/51/135 25/106/136
s 7
f 5/4/137 59/52/138 62/53/110 7/54/139
s 4
f 53/102/140 66/43/65 31/24/64 28/55/141
s 9
f 43/90/142 29/56/143 30/57/144 69/58/145
s 7
f 54/59/146 55/60/147 63/88/114 67/48/116
f 64/63/113 61/46/109 76/61/112 78/62/87
f 68/47/115 64/63/113 78/62/87 39/34/86
s 4
f 32/64/63 65/65/66 38/29/77 81/31/80
s 9
f 69/58/145 30/57/144 32/66/148 81/67/149 80/68/150 70/80/151
s 7
f 21/69/152 22/70/153 77/71/111 33/72/154
f 79/75/88 77/71/111 22/70/153 24/16/155 51/111/156 50/73/157
f 40/74/85 79/75/88 50/73/157 37/76/158
s 4
f 45/37/159 82/39/79 41/30/78 36/77/160
s 9
f 70/80/151 80/68/150 46/78/161 47/79/162
f 72/92/163 70/80/151 47/79/162 49/40/164 18/81/165 17/105/166
f 15/14/167 73/82/168 72/92/163 17/105/166
s 7
f 8/87/169 7/54/139 62/53/110 63/88/114 55/60/147 57/89/170
s 9
f 14/50/134 13/8/171 44/109/172 43/90/142 69/58/145 71/51/135
f 26/91/173 25/106/136 71/51/135 72/92/163 73/82/168 75/93/174
s 7
f 34/94/175 33/72/154 77/71/111 62/53/110 59/52/138 58/95/176
s 2
f 6/98/177 9/7/25 12/10/26 10/96/178
s 3
f 10/96/179 27/20/53 60/97/54 6/98/180
s 1
f 16/13/181 19/15/43 23/19/44 20/99/182
s 3
f 20/17/183 35/25/67 74/116/68 16/100/184
s 2
f 28/55/185 42/35/89 56/101/90 53/102/186
s 1
f 36/27/187 52/41/100 48/110/99 45/103/188
s off
f 7/104/189 8/1/190 9/7/191
f 12/10/192 13/8/193 14/50/194
f 17/105/195 18/81/196 19/15/197
f 22/70/198 23/19/199 24/16/200
f 25/106/201 26/91/202 27/9/203
f 30/23/204 31/24/205 32/64/206
f 33/107/207 34/2/208 35/25/209
s 5
f 38/32/82 39/34/81 40/74/76 41/108/75
s off
f 42/35/210 43/90/211 44/109/212
f 47/79/213 48/110/214 49/40/215
f 50/73/216 51/111/217 52/41/218
f 55/112/219 56/101/220 57/36/221
f 58/95/222 59/52/223 60/113/224
s 5
f 65/65/83 66/43/104 67/114/103 68/115/84
s off
f 73/12/225 74/116/226 75/26/227
f 80/117/228 81/31/229 82/39/230
